<?xml version="1.0" encoding="UTF-8" standalone="no"?>
<!-- Created with Inkscape (http://www.inkscape.org/) -->

<svg
   xmlns:dc="http://purl.org/dc/elements/1.1/"
   xmlns:cc="http://creativecommons.org/ns#"
   xmlns:rdf="http://www.w3.org/1999/02/22-rdf-syntax-ns#"
   xmlns:svg="http://www.w3.org/2000/svg"
   xmlns="http://www.w3.org/2000/svg"
   xmlns:xlink="http://www.w3.org/1999/xlink"
   xmlns:sodipodi="http://sodipodi.sourceforge.net/DTD/sodipodi-0.dtd"
   xmlns:inkscape="http://www.inkscape.org/namespaces/inkscape"
   width="80mm"
   height="100mm"
   viewBox="0 0 80 100"
   version="1.1"
   id="svg8"
   inkscape:version="0.92.4 (5da689c313, 2019-01-14)"
   sodipodi:docname="icon.svg"
   inkscape:export-filename="/home/fabien/Téléchargements/favicon.png"
   inkscape:export-xdpi="96"
   inkscape:export-ydpi="96">
  <defs
     id="defs2">
    <linearGradient
       inkscape:collect="always"
       id="linearGradient1759">
      <stop
         style="stop-color:#f2f2f2;stop-opacity:1;"
         offset="0"
         id="stop1755" />
      <stop
         style="stop-color:#f2f2f2;stop-opacity:0;"
         offset="1"
         id="stop1757" />
    </linearGradient>
    <linearGradient
       inkscape:collect="always"
       id="linearGradient1749">
      <stop
         style="stop-color:#f2f2f2;stop-opacity:1;"
         offset="0"
         id="stop1745" />
      <stop
         style="stop-color:#f2f2f2;stop-opacity:0;"
         offset="1"
         id="stop1747" />
    </linearGradient>
    <linearGradient
       inkscape:collect="always"
       id="linearGradient4614">
      <stop
         style="stop-color:#4527a0;stop-opacity:1;"
         offset="0"
         id="stop4610" />
      <stop
         style="stop-color:#ff27a0;stop-opacity:1"
         offset="1"
         id="stop4612" />
    </linearGradient>
    <linearGradient
       inkscape:collect="always"
       xlink:href="#linearGradient4614"
       id="linearGradient4616"
       x1="33.410072"
       y1="50.928268"
       x2="79.279137"
       y2="51.306244"
       gradientUnits="userSpaceOnUse"
       gradientTransform="matrix(1.7303322,0,0,1.7303322,-44.214101,-73.094211)" />
    <linearGradient
       inkscape:collect="always"
       xlink:href="#linearGradient4614"
       id="linearGradient910"
       x1="-0.00027799213"
       y1="47.00008"
       x2="58.000198"
       y2="47.00008"
       gradientUnits="userSpaceOnUse" />
    <linearGradient
       inkscape:collect="always"
       xlink:href="#linearGradient4614"
       id="linearGradient912"
       gradientUnits="userSpaceOnUse"
       x1="-0.00027799213"
       y1="47.00008"
       x2="58.000198"
       y2="47.00008" />
    <linearGradient
       inkscape:collect="always"
       xlink:href="#linearGradient4614"
       id="linearGradient914"
       gradientUnits="userSpaceOnUse"
       x1="-0.00027799213"
       y1="47.00008"
       x2="58.000198"
       y2="47.00008" />
    <linearGradient
       inkscape:collect="always"
       xlink:href="#linearGradient4614"
       id="linearGradient916"
       gradientUnits="userSpaceOnUse"
       x1="-0.00027799213"
       y1="47.00008"
       x2="58.000198"
       y2="47.00008" />
    <linearGradient
       inkscape:collect="always"
       xlink:href="#linearGradient4614"
       id="linearGradient918"
       gradientUnits="userSpaceOnUse"
       x1="-0.00027799213"
       y1="47.00008"
       x2="58.000198"
       y2="47.00008" />
    <linearGradient
       inkscape:collect="always"
       xlink:href="#linearGradient4614"
       id="linearGradient920"
       gradientUnits="userSpaceOnUse"
       x1="-0.00027799213"
       y1="47.00008"
       x2="58.000198"
       y2="47.00008" />
    <linearGradient
       inkscape:collect="always"
       xlink:href="#linearGradient4614"
       id="linearGradient922"
       gradientUnits="userSpaceOnUse"
       x1="-0.00027799213"
       y1="47.00008"
       x2="58.000198"
       y2="47.00008" />
    <linearGradient
       inkscape:collect="always"
       xlink:href="#linearGradient4614"
       id="linearGradient924"
       gradientUnits="userSpaceOnUse"
       x1="-0.00027799213"
       y1="47.00008"
       x2="58.000198"
       y2="47.00008" />
    <linearGradient
       inkscape:collect="always"
       xlink:href="#linearGradient4614"
       id="linearGradient926"
       gradientUnits="userSpaceOnUse"
       x1="-0.00027799213"
       y1="47.00008"
       x2="58.000198"
       y2="47.00008" />
    <linearGradient
       inkscape:collect="always"
       xlink:href="#linearGradient4614"
       id="linearGradient928"
       gradientUnits="userSpaceOnUse"
       x1="-0.00027799213"
       y1="47.00008"
       x2="58.000198"
       y2="47.00008" />
    <linearGradient
       inkscape:collect="always"
       xlink:href="#linearGradient4614"
       id="linearGradient930"
       gradientUnits="userSpaceOnUse"
       x1="-0.00027799213"
       y1="47.00008"
       x2="58.000198"
       y2="47.00008" />
    <linearGradient
       inkscape:collect="always"
       xlink:href="#linearGradient4614"
       id="linearGradient932"
       gradientUnits="userSpaceOnUse"
       x1="-0.00027799213"
       y1="47.00008"
       x2="58.000198"
       y2="47.00008" />
    <linearGradient
       inkscape:collect="always"
       xlink:href="#linearGradient4614"
       id="linearGradient934"
       gradientUnits="userSpaceOnUse"
       x1="-0.00027799213"
       y1="47.00008"
       x2="58.000198"
       y2="47.00008" />
    <linearGradient
       inkscape:collect="always"
       xlink:href="#linearGradient4614"
       id="linearGradient936"
       gradientUnits="userSpaceOnUse"
       x1="-0.00027799213"
       y1="47.00008"
       x2="58.000198"
       y2="47.00008" />
    <linearGradient
       inkscape:collect="always"
       xlink:href="#linearGradient4614"
       id="linearGradient938"
       gradientUnits="userSpaceOnUse"
       x1="-0.00027799213"
       y1="47.00008"
       x2="58.000198"
       y2="47.00008" />
    <linearGradient
       inkscape:collect="always"
       xlink:href="#linearGradient4614"
       id="linearGradient940"
       gradientUnits="userSpaceOnUse"
       x1="-0.00027799213"
       y1="47.00008"
       x2="58.000198"
       y2="47.00008" />
    <linearGradient
       inkscape:collect="always"
       xlink:href="#linearGradient4614"
       id="linearGradient942"
       gradientUnits="userSpaceOnUse"
       x1="-0.00027799213"
       y1="47.00008"
       x2="58.000198"
       y2="47.00008" />
    <linearGradient
       inkscape:collect="always"
       xlink:href="#linearGradient4614"
       id="linearGradient944"
       gradientUnits="userSpaceOnUse"
       x1="-0.00027799213"
       y1="47.00008"
       x2="58.000198"
       y2="47.00008" />
    <linearGradient
       inkscape:collect="always"
       xlink:href="#linearGradient4614"
       id="linearGradient1032"
       gradientUnits="userSpaceOnUse"
       x1="-0.00027799213"
       y1="47.00008"
       x2="58.000198"
       y2="47.00008" />
    <linearGradient
       inkscape:collect="always"
       xlink:href="#linearGradient4614"
       id="linearGradient1034"
       gradientUnits="userSpaceOnUse"
       x1="-0.00027799213"
       y1="47.00008"
       x2="58.000198"
       y2="47.00008" />
    <linearGradient
       inkscape:collect="always"
       xlink:href="#linearGradient4614"
       id="linearGradient1036"
       gradientUnits="userSpaceOnUse"
       x1="-0.00027799213"
       y1="47.00008"
       x2="58.000198"
       y2="47.00008" />
    <linearGradient
       inkscape:collect="always"
       xlink:href="#linearGradient4614"
       id="linearGradient1038"
       gradientUnits="userSpaceOnUse"
       x1="-0.00027799213"
       y1="47.00008"
       x2="58.000198"
       y2="47.00008" />
    <linearGradient
       inkscape:collect="always"
       xlink:href="#linearGradient4614"
       id="linearGradient1040"
       gradientUnits="userSpaceOnUse"
       x1="-0.00027799213"
       y1="47.00008"
       x2="58.000198"
       y2="47.00008" />
    <linearGradient
       inkscape:collect="always"
       xlink:href="#linearGradient4614"
       id="linearGradient1042"
       gradientUnits="userSpaceOnUse"
       x1="-0.00027799213"
       y1="47.00008"
       x2="58.000198"
       y2="47.00008" />
    <linearGradient
       inkscape:collect="always"
       xlink:href="#linearGradient4614"
       id="linearGradient1044"
       gradientUnits="userSpaceOnUse"
       x1="-0.00027799213"
       y1="47.00008"
       x2="58.000198"
       y2="47.00008" />
    <linearGradient
       inkscape:collect="always"
       xlink:href="#linearGradient4614"
       id="linearGradient1046"
       gradientUnits="userSpaceOnUse"
       x1="-0.00027799213"
       y1="47.00008"
       x2="58.000198"
       y2="47.00008" />
    <linearGradient
       inkscape:collect="always"
       xlink:href="#linearGradient4614"
       id="linearGradient1048"
       gradientUnits="userSpaceOnUse"
       x1="-0.00027799213"
       y1="47.00008"
       x2="58.000198"
       y2="47.00008" />
    <linearGradient
       inkscape:collect="always"
       xlink:href="#linearGradient4614"
       id="linearGradient1050"
       gradientUnits="userSpaceOnUse"
       x1="-0.00027799213"
       y1="47.00008"
       x2="58.000198"
       y2="47.00008" />
    <linearGradient
       inkscape:collect="always"
       xlink:href="#linearGradient4614"
       id="linearGradient1052"
       gradientUnits="userSpaceOnUse"
       x1="-0.00027799213"
       y1="47.00008"
       x2="58.000198"
       y2="47.00008" />
    <linearGradient
       inkscape:collect="always"
       xlink:href="#linearGradient4614"
       id="linearGradient1054"
       gradientUnits="userSpaceOnUse"
       x1="-0.00027799213"
       y1="47.00008"
       x2="58.000198"
       y2="47.00008" />
    <linearGradient
       inkscape:collect="always"
       xlink:href="#linearGradient4614"
       id="linearGradient1056"
       gradientUnits="userSpaceOnUse"
       x1="-0.00027799213"
       y1="47.00008"
       x2="58.000198"
       y2="47.00008" />
    <linearGradient
       inkscape:collect="always"
       xlink:href="#linearGradient4614"
       id="linearGradient1058"
       gradientUnits="userSpaceOnUse"
       x1="-0.00027799213"
       y1="47.00008"
       x2="58.000198"
       y2="47.00008" />
    <linearGradient
       inkscape:collect="always"
       xlink:href="#linearGradient4614"
       id="linearGradient1060"
       gradientUnits="userSpaceOnUse"
       x1="-0.00027799213"
       y1="47.00008"
       x2="58.000198"
       y2="47.00008" />
    <linearGradient
       inkscape:collect="always"
       xlink:href="#linearGradient4614"
       id="linearGradient1062"
       gradientUnits="userSpaceOnUse"
       x1="-0.00027799213"
       y1="47.00008"
       x2="58.000198"
       y2="47.00008" />
    <linearGradient
       inkscape:collect="always"
       xlink:href="#linearGradient4614"
       id="linearGradient1064"
       gradientUnits="userSpaceOnUse"
       x1="-0.00027799213"
       y1="47.00008"
       x2="58.000198"
       y2="47.00008" />
    <linearGradient
       inkscape:collect="always"
       xlink:href="#linearGradient4614"
       id="linearGradient1066"
       gradientUnits="userSpaceOnUse"
       x1="-0.00027799213"
       y1="47.00008"
       x2="58.000198"
       y2="47.00008" />
    <linearGradient
       inkscape:collect="always"
       xlink:href="#linearGradient1749"
       id="linearGradient1751"
       x1="30.140454"
       y1="186.09869"
       x2="275.43602"
       y2="186.09869"
       gradientUnits="userSpaceOnUse" />
    <linearGradient
       inkscape:collect="always"
       xlink:href="#linearGradient1759"
       id="linearGradient1761"
       x1="29.964175"
       y1="186.08583"
       x2="275.43608"
       y2="186.08583"
       gradientUnits="userSpaceOnUse" />
  </defs>
  <sodipodi:namedview
     id="base"
     pagecolor="#ffffff"
     bordercolor="#666666"
     borderopacity="1.0"
     inkscape:pageopacity="0.0"
     inkscape:pageshadow="2"
     inkscape:zoom="0.9899495"
     inkscape:cx="12.589551"
     inkscape:cy="234.16237"
     inkscape:document-units="mm"
     inkscape:current-layer="layer1"
     showgrid="false"
     inkscape:window-width="2126"
     inkscape:window-height="1233"
     inkscape:window-x="2520"
     inkscape:window-y="93"
     inkscape:window-maximized="0" />
  <metadata
     id="metadata5">
    <rdf:RDF>
      <cc:Work
         rdf:about="">
        <dc:format>image/svg+xml</dc:format>
        <dc:type
           rdf:resource="http://purl.org/dc/dcmitype/StillImage" />
        <dc:title />
      </cc:Work>
    </rdf:RDF>
  </metadata>
  <g
     inkscape:groupmode="layer"
     id="layer3"
     inkscape:label="fond"
     style="display:inline">
    <rect
       style="opacity:1;fill:#008000;fill-opacity:0;stroke-width:0.26458332"
       id="rect950"
       width="76.439087"
       height="77.775429"
       x="1.8708867"
       y="8.5938225"
       inkscape:export-filename="/home/fabien/Téléchargements/favicon.png"
       inkscape:export-xdpi="96"
       inkscape:export-ydpi="96" />
    <rect
       style="opacity:1;fill:#f2f2f2;fill-opacity:1;stroke:none;stroke-width:0.23536886;stroke-opacity:1"
       id="rect1030"
       width="64.764626"
       height="64.764633"
       x="8.0907488"
       y="16.804621"
       ry="4.4000001"
       inkscape:export-filename="/home/fabien/Téléchargements/favicon.png"
       inkscape:export-xdpi="96"
       inkscape:export-ydpi="96" />
    <path
       style="opacity:1;fill:#f2f2f2;fill-opacity:1;stroke:none;stroke-width:1.01015258;stroke-opacity:1"
       d="m 41.580929,307.33205 c -4.969919,-1.75715 -9.1242,-6.21485 -10.53862,-11.30834 -1.535052,-5.5279 -1.4887,-213.95389 0.04894,-220.060407 1.352189,-5.37003 7.210494,-11.161343 12.197177,-12.057698 1.838797,-0.330524 52.472167,-0.469852 112.518604,-0.309618 l 109.17533,0.291333 3.56706,2.7209 c 7.3611,5.614946 6.88182,-2.704596 6.88182,119.45785 0,92.50756 -0.2239,110.18016 -1.42504,112.47934 -2.13893,4.09422 -6.88597,8.20082 -10.76616,9.31365 -2.1627,0.62025 -43.46352,0.97368 -110.53566,0.94592 -89.636869,-0.0371 -107.741137,-0.27709 -111.123451,-1.47293 z m 96.004801,-11.12483 c 15.92715,-4.04862 30.00136,-14.6176 35.80661,-26.88885 l 3.04236,-6.431 7.9e-4,-64.9023 c 9e-4,-73.49955 -0.89813,-66.95352 8.5871,-62.5238 6.62292,3.09299 10.70753,6.63433 14.53915,12.60538 5.54734,8.64479 7.41155,15.54053 7.55538,27.9476 0.0708,6.11142 -0.19319,12.25188 -0.58676,13.64546 -0.39357,1.39357 -0.29287,3.21185 0.22378,4.04061 1.41014,2.26198 3.95752,0.26653 7.82929,-6.13296 6.11522,-10.1076 7.6927,-15.55411 7.75674,-26.78155 0.0569,-9.96868 -0.0287,-10.35244 -4.16685,-18.68782 -4.1803,-8.42027 -10.26749,-16.38296 -26.21453,-34.29134 -8.78741,-9.868193 -13.55105,-17.506653 -14.47472,-23.21008 l -0.57275,-3.536657 -9.83396,-0.289117 -9.83397,-0.289118 v 75.267942 75.26794 l -2.65351,-1.00887 c -1.45943,-0.55487 -5.89148,-1.26914 -9.84899,-1.58726 -15.58042,-1.25243 -32.68275,5.22079 -44.13076,16.70347 -8.244841,8.2698 -11.362059,14.45124 -11.890677,23.57918 -0.337722,5.83165 -0.0027,7.62938 2.297983,12.33186 3.688016,7.53803 11.493344,13.48204 20.483724,15.59903 6.14744,1.44756 19.57328,1.22739 26.08457,-0.42775 z"
       id="path1741"
       inkscape:connector-curvature="0"
       transform="scale(0.26458333)" />
    <path
       style="opacity:1;fill:url(#linearGradient1751);fill-opacity:1;stroke:none;stroke-width:1.01015258;stroke-opacity:1"
       d="m 41.580929,307.33205 c -5.037294,-1.78097 -9.167844,-6.27158 -10.574803,-11.49664 -0.739871,-2.74766 -0.992819,-37.99909 -0.807202,-112.49337 L 30.469251,74.8503 32.977282,71.190405 c 1.379417,-2.012943 4.16872,-4.593255 6.198452,-5.734028 3.66012,-2.057103 4.601835,-2.074133 114.692046,-2.074133 H 264.8694 l 3.89119,3.207443 c 7.09293,5.84659 6.67065,-1.72809 6.67065,119.657433 V 296.0449 l -2.51111,4.28488 c -1.67436,2.85709 -3.96851,4.9904 -6.88491,6.4022 -4.35885,2.11009 -4.74349,2.11718 -112.39375,2.073 -90.444605,-0.0371 -108.677356,-0.27679 -112.060541,-1.47293 z m 96.004801,-11.12483 c 15.92715,-4.04862 30.00136,-14.6176 35.80661,-26.88885 l 3.04236,-6.431 7.9e-4,-64.9023 c 9e-4,-73.49955 -0.89813,-66.95352 8.5871,-62.5238 6.62292,3.09299 10.70753,6.63433 14.53915,12.60538 5.54734,8.64479 7.41155,15.54053 7.55538,27.9476 0.0708,6.11142 -0.19319,12.25188 -0.58676,13.64546 -0.39357,1.39357 -0.29287,3.21185 0.22378,4.04061 1.41014,2.26198 3.95752,0.26653 7.82929,-6.13296 6.11522,-10.1076 7.6927,-15.55411 7.75674,-26.78155 0.0569,-9.96868 -0.0287,-10.35244 -4.16685,-18.68782 -4.1803,-8.42027 -10.26749,-16.38296 -26.21453,-34.29134 -8.78741,-9.868193 -13.55105,-17.506653 -14.47472,-23.21008 l -0.57275,-3.536657 -9.83396,-0.289117 -9.83397,-0.289118 v 75.267942 75.26794 l -2.65351,-1.00887 c -1.45943,-0.55487 -5.89148,-1.26914 -9.84899,-1.58726 -15.58042,-1.25243 -32.68275,5.22079 -44.13076,16.70347 -8.244841,8.2698 -11.362059,14.45124 -11.890677,23.57918 -0.337722,5.83165 -0.0027,7.62938 2.297983,12.33186 3.688016,7.53803 11.493344,13.48204 20.483724,15.59903 6.14744,1.44756 19.57328,1.22739 26.08457,-0.42775 z"
       id="path1743"
       inkscape:connector-curvature="0"
       transform="scale(0.26458333)" />
    <path
       style="opacity:1;fill:url(#linearGradient1761);fill-opacity:1;stroke:none;stroke-width:1.01015258;stroke-opacity:1"
       d="M 41.580929,307.34196 C 36.797083,305.66233 31.467343,299.95017 30.589736,295.56214 30.245678,293.84185 29.964175,243.60091 29.964175,183.91561 V 75.396889 l 2.3395,-3.442884 c 1.286726,-1.893586 3.662005,-4.483239 5.2784,-5.754785 l 2.938899,-2.3119 112.158616,-0.265399 112.15861,-0.265398 3.90678,3.220304 c 7.11105,5.861523 6.68626,-1.741299 6.68626,119.670293 V 296.0449 l -2.51111,4.28488 c -1.67436,2.85709 -3.96851,4.9904 -6.88491,6.4022 -4.35885,2.11009 -4.74349,2.11718 -112.39375,2.073 -90.074741,-0.037 -108.691191,-0.28003 -112.060541,-1.46302 z m 94.652081,-10.76713 c 2.94416,-0.63954 4.78481,-1.35928 4.09033,-1.59941 -0.97514,-0.33718 -1.26269,-7.88043 -1.26269,-33.1243 v -32.68769 l 4.29315,-0.38668 c 3.87725,-0.34922 3.75493,-0.40208 -1.26269,-0.54562 -14.55536,-0.4164 -30.83195,6.2125 -41.48098,16.89377 -8.244841,8.2698 -11.362059,14.45124 -11.890677,23.57918 -0.337722,5.83165 -0.0027,7.62938 2.297983,12.33186 3.688016,7.53803 11.493344,13.48204 20.483724,15.59903 5.57372,1.31246 18.55837,1.28088 24.73185,-0.0601 z m 11.91901,-3.88796 c 0.83338,-0.53857 1.06066,-0.97921 0.50508,-0.97921 -0.55559,0 -1.69201,0.44064 -2.52538,0.97921 -0.83338,0.53857 -1.06066,0.97921 -0.50508,0.97921 0.55558,0 1.69201,-0.44064 2.52538,-0.97921 z m 8.08122,-4.61677 c 0,-0.27779 -0.90914,-0.0185 -2.0203,0.57616 -1.11117,0.59468 -2.02031,1.30852 -2.02031,1.58631 0,0.2778 0.90914,0.0185 2.02031,-0.57616 1.11116,-0.59467 2.0203,-1.30852 2.0203,-1.58631 z m 3.15931,-2.20176 c 1.2565,-1.60216 1.22077,-1.63789 -0.38139,-0.38139 -0.97227,0.76251 -1.76777,1.55801 -1.76777,1.76776 0,0.8314 0.82953,0.29629 2.14916,-1.38637 z m 5.93207,-4.79822 c 1.88472,-1.94455 3.19948,-3.53554 2.92169,-3.53554 -0.27779,0 -2.04713,1.59099 -3.93185,3.53554 -1.88472,1.94454 -3.19948,3.53553 -2.92169,3.53553 0.27779,0 2.04712,-1.59099 3.93185,-3.53553 z m 6.09102,-7.6324 c 1.53502,-2.86821 0.488,-2.40018 -1.53394,0.6857 -0.9549,1.45737 -1.23692,2.34119 -0.62668,1.96405 0.61022,-0.37714 1.5825,-1.56953 2.16062,-2.64975 z m 4.85893,-13.58081 c -0.0688,-2.95258 -0.0891,-2.93961 -0.78955,0.50508 -0.39541,1.94454 -1.02048,4.67195 -1.38904,6.06091 -0.54056,2.03718 -0.38793,1.93954 0.78954,-0.50507 0.80281,-1.66675 1.42788,-4.39417 1.38905,-6.06092 z m -23.34536,-30.4098 c -0.33568,-0.33566 -1.20694,-0.37155 -1.93613,-0.0797 -0.80583,0.32246 -0.56648,0.56182 0.6103,0.61029 1.06486,0.0438 1.66149,-0.19489 1.32583,-0.53055 z m 55.52184,-55.68648 c -0.25612,-0.98285 -0.48251,-0.42328 -0.5031,1.24347 -0.0206,1.66675 0.18896,2.47089 0.46567,1.78699 0.2767,-0.6839 0.29354,-2.04761 0.0375,-3.03046 z m -1.02014,-7.53223 c -0.32246,-0.80583 -0.56182,-0.56647 -0.61029,0.6103 -0.0438,1.06487 0.19488,1.66149 0.53055,1.32583 0.33567,-0.33568 0.37155,-1.20693 0.0797,-1.93613 z m 15.19434,-8.12626 c -0.22482,-1.8156 -0.41341,-0.57368 -0.41908,2.75982 -0.006,3.33351 0.17827,4.819 0.40877,3.30109 0.23049,-1.51791 0.23512,-4.24532 0.0103,-6.06091 z m -1.0522,-7.02603 c -0.32246,-0.80583 -0.56183,-0.56647 -0.61029,0.6103 -0.0438,1.06487 0.19487,1.66149 0.53055,1.32583 0.33566,-0.33567 0.37154,-1.20693 0.0797,-1.93613 z m -33.26746,-15.0438 c -1.57139,-0.91525 -1.76777,-2.89484 -1.76777,-17.81994 0,-13.42732 -0.30028,-17.12213 -1.49919,-18.446912 -0.82456,-0.911121 -2.86188,-4.128895 -4.52739,-7.150607 -3.39876,-6.166339 -4.18032,-6.08491 -1.02172,0.106451 1.8649,3.655514 2.01907,5.612071 1.76777,22.435648 l -0.27531,18.4309 3.53553,1.68599 c 3.88516,1.85273 6.6001,2.39633 3.78808,0.75847 z m -9.11242,-3.55984 c -0.33567,-0.33567 -1.20693,-0.37155 -1.93613,-0.0797 -0.80583,0.32246 -0.56647,0.56183 0.61031,0.6103 1.06486,0.0439 1.66148,-0.19489 1.32582,-0.53055 z m 13.40556,-23.63336 c 0,-0.55559 -0.48139,-1.01015 -1.06977,-1.01015 -0.58837,0 -0.78883,0.45456 -0.44546,1.01015 0.34338,0.55558 0.82477,1.01015 1.06978,1.01015 0.245,0 0.44545,-0.45457 0.44545,-1.01015 z M 177.05851,82.01106 c -0.32395,-0.84418 -1.73968,-1.39261 -3.36844,-1.30487 l -2.80962,0.151353 2.77792,0.42082 c 2.19683,0.332793 2.80244,0.98787 2.8951,3.131642 0.0785,1.816442 0.27335,2.108116 0.59051,0.884051 0.26033,-1.004726 0.22187,-2.482075 -0.0855,-3.282996 z m -19.11509,-0.174307 c -0.25611,-0.982846 -0.48251,-0.423286 -0.5031,1.243465 -0.0206,1.666752 0.18896,2.470898 0.46567,1.786993 0.27671,-0.683907 0.29354,-2.047613 0.0375,-3.030458 z"
       id="path1753"
       inkscape:connector-curvature="0"
       transform="scale(0.26458333)"
       inkscape:export-filename="/home/fabien/Téléchargements/favicon.png"
       inkscape:export-xdpi="96"
       inkscape:export-ydpi="96" />
  </g>
  <g
     inkscape:label="Calque 1"
     inkscape:groupmode="layer"
     id="layer1"
     transform="translate(0,-197)">
    <text
       xml:space="preserve"
       style="font-style:normal;font-variant:normal;font-weight:normal;font-stretch:normal;font-size:10.58333302px;line-height:1.25;font-family:'URW Gothic L';-inkscape-font-specification:'URW Gothic L';letter-spacing:0px;word-spacing:0px;opacity:1;fill:#b255c1;fill-opacity:1;stroke:none;stroke-width:0.26458332"
       x="50.739906"
       y="71.694984"
       id="text3719"
       transform="rotate(-14.400392)"><tspan
         sodipodi:role="line"
         id="tspan3717"
         x="50.739906"
         y="81.52607"
         style="font-style:normal;font-variant:normal;font-weight:normal;font-stretch:normal;font-size:17.63888931px;font-family:'Royal Twins';-inkscape-font-specification:'Royal Twins';fill:#b255c1;fill-opacity:1;stroke-width:0.26458332" /></text>
    <g
       id="g902"
       transform="matrix(0.61039074,0,0,0.61039074,23.48162,218.36468)"
       style="fill:url(#linearGradient1066);fill-opacity:1"
       inkscape:export-filename="/home/fabien/Téléchargements/favicon.png"
       inkscape:export-xdpi="96"
       inkscape:export-ydpi="96">
      <g
         id="g846"
         style="fill:url(#linearGradient1034);fill-opacity:1">
        <path
           id="path844"
           d="M 37.992,0 H 29.971 V 65.358 C 25.536,63.652 19.797,63.628 14.136,65.686 3.994,69.377 -2.049,78.355 0.638,85.736 3.326,93.119 13.726,96.11 23.867,92.419 32.481,89.285 38.116,82.337 37.978,75.793 l 0.014,-53.451 c 13.986,2.204 14.943,19.884 13.268,24.842 -0.636,1.879 0.484,3.286 2.598,0 C 68.938,23.726 37.992,13.376 37.992,0 Z"
           inkscape:connector-curvature="0"
           style="fill:url(#linearGradient1032);fill-opacity:1" />
      </g>
      <g
         id="g848"
         style="fill:url(#linearGradient1036);fill-opacity:1" />
      <g
         id="g850"
         style="fill:url(#linearGradient1038);fill-opacity:1" />
      <g
         id="g852"
         style="fill:url(#linearGradient1040);fill-opacity:1" />
      <g
         id="g854"
         style="fill:url(#linearGradient1042);fill-opacity:1" />
      <g
         id="g856"
         style="fill:url(#linearGradient1044);fill-opacity:1" />
      <g
         id="g858"
         style="fill:url(#linearGradient1046);fill-opacity:1" />
      <g
         id="g860"
         style="fill:url(#linearGradient1048);fill-opacity:1" />
      <g
         id="g862"
         style="fill:url(#linearGradient1050);fill-opacity:1" />
      <g
         id="g864"
         style="fill:url(#linearGradient1052);fill-opacity:1" />
      <g
         id="g866"
         style="fill:url(#linearGradient1054);fill-opacity:1" />
      <g
         id="g868"
         style="fill:url(#linearGradient1056);fill-opacity:1" />
      <g
         id="g870"
         style="fill:url(#linearGradient1058);fill-opacity:1" />
      <g
         id="g872"
         style="fill:url(#linearGradient1060);fill-opacity:1" />
      <g
         id="g874"
         style="fill:url(#linearGradient1062);fill-opacity:1" />
      <g
         id="g876"
         style="fill:url(#linearGradient1064);fill-opacity:1" />
    </g>
    <rect
       style="opacity:1;fill:#ff27a0;fill-opacity:0;stroke-width:0.26458332"
       id="rect1005"
       width="61.610119"
       height="61.421127"
       x="82.398804"
       y="3.6904759" />
    <g
       inkscape:export-ydpi="96"
       inkscape:export-xdpi="96"
       inkscape:export-filename="/home/fabien/Téléchargements/favicon.png"
       style="fill:url(#linearGradient910);fill-opacity:1"
       transform="matrix(0.61039074,0,0,0.61039074,23.48162,218.36468)"
       id="g941">
      <g
         style="fill:url(#linearGradient914);fill-opacity:1"
         id="g909">
        <path
           style="fill:url(#linearGradient912);fill-opacity:1"
           inkscape:connector-curvature="0"
           d="M 37.992,0 H 29.971 V 65.358 C 25.536,63.652 19.797,63.628 14.136,65.686 3.994,69.377 -2.049,78.355 0.638,85.736 3.326,93.119 13.726,96.11 23.867,92.419 32.481,89.285 38.116,82.337 37.978,75.793 l 0.014,-53.451 c 13.986,2.204 14.943,19.884 13.268,24.842 -0.636,1.879 0.484,3.286 2.598,0 C 68.938,23.726 37.992,13.376 37.992,0 Z"
           id="path907"
           inkscape:export-filename="/home/fabien/Téléchargements/favicon.png"
           inkscape:export-xdpi="96"
           inkscape:export-ydpi="96" />
      </g>
      <g
         style="fill:url(#linearGradient916);fill-opacity:1"
         id="g911" />
      <g
         style="fill:url(#linearGradient918);fill-opacity:1"
         id="g913" />
      <g
         style="fill:url(#linearGradient920);fill-opacity:1"
         id="g915" />
      <g
         style="fill:url(#linearGradient922);fill-opacity:1"
         id="g917" />
      <g
         style="fill:url(#linearGradient924);fill-opacity:1"
         id="g919" />
      <g
         style="fill:url(#linearGradient926);fill-opacity:1"
         id="g921" />
      <g
         style="fill:url(#linearGradient928);fill-opacity:1"
         id="g923" />
      <g
         style="fill:url(#linearGradient930);fill-opacity:1"
         id="g925" />
      <g
         style="fill:url(#linearGradient932);fill-opacity:1"
         id="g927" />
      <g
         style="fill:url(#linearGradient934);fill-opacity:1"
         id="g929" />
      <g
         style="fill:url(#linearGradient936);fill-opacity:1"
         id="g931" />
      <g
         style="fill:url(#linearGradient938);fill-opacity:1"
         id="g933" />
      <g
         style="fill:url(#linearGradient940);fill-opacity:1"
         id="g935" />
      <g
         style="fill:url(#linearGradient942);fill-opacity:1"
         id="g937" />
      <g
         style="fill:url(#linearGradient944);fill-opacity:1"
         id="g939" />
    </g>
  </g>
</svg>
