<?xml version="1.0" encoding="UTF-8" standalone="no"?><!DOCTYPE svg PUBLIC "-//W3C//DTD SVG 1.1//EN" "http://www.w3.org/Graphics/SVG/1.1/DTD/svg11.dtd"><svg width="100%" height="100%" viewBox="0 0 765 765" version="1.1" xmlns="http://www.w3.org/2000/svg" xmlns:xlink="http://www.w3.org/1999/xlink" xml:space="preserve" xmlns:serif="http://www.serif.com/" style="fill-rule:evenodd;clip-rule:evenodd;stroke-linejoin:round;stroke-miterlimit:2;"><g id="fond"><rect id="rect950" x="-73.952" y="-99.601" width="902.824" height="918.607" style="fill:#008000;fill-opacity:0;"/><rect id="rect1030" x="-0.489" y="-2.623" width="764.937" height="764.937" style="fill:#f2f2f2;"/></g><g id="Calque-1" serif:id="Calque 1"><g id="text3719"></g><g id="g902"><g id="g846"><path id="path844" d="M455.19,51.236l-57.826,0l0,471.188c-31.973,-12.299 -73.348,-12.472 -114.16,2.365c-73.117,26.61 -116.683,91.335 -97.311,144.547c19.378,53.227 94.355,74.79 167.465,48.18c62.102,-22.594 102.726,-72.684 101.731,-119.862l0.101,-385.347c100.83,15.89 107.729,143.351 95.654,179.095c-4.585,13.546 3.489,23.69 18.73,-0c108.716,-169.117 -114.384,-243.734 -114.384,-340.166Z" style="fill:url(#_Linear1);fill-rule:nonzero;"/></g></g><g id="g941"><g id="g909"><path id="path907" d="M455.19,51.236l-57.826,0l0,471.188c-31.973,-12.299 -73.348,-12.472 -114.16,2.365c-73.117,26.61 -116.683,91.335 -97.311,144.547c19.378,53.227 94.355,74.79 167.465,48.18c62.102,-22.594 102.726,-72.684 101.731,-119.862l0.101,-385.347c100.83,15.89 107.729,143.351 95.654,179.095c-4.585,13.546 3.489,23.69 18.73,-0c108.716,-169.117 -114.384,-243.734 -114.384,-340.166Z" style="fill:url(#_Linear2);fill-rule:nonzero;"/></g></g></g><defs><linearGradient id="_Linear1" x1="0" y1="0" x2="1" y2="0" gradientUnits="userSpaceOnUse" gradientTransform="matrix(418.145,0,0,418.145,181.291,390.076)"><stop offset="0" style="stop-color:#4527a0;stop-opacity:1"/><stop offset="1" style="stop-color:#ff27a0;stop-opacity:1"/></linearGradient><linearGradient id="_Linear2" x1="0" y1="0" x2="1" y2="0" gradientUnits="userSpaceOnUse" gradientTransform="matrix(418.145,0,0,418.145,181.291,390.076)"><stop offset="0" style="stop-color:#4527a0;stop-opacity:1"/><stop offset="1" style="stop-color:#ff27a0;stop-opacity:1"/></linearGradient></defs></svg>