<?xml version="1.0" encoding="UTF-8" standalone="no"?>
<svg
   xmlns:serif="http://www.serif.com/"
   xmlns:dc="http://purl.org/dc/elements/1.1/"
   xmlns:cc="http://creativecommons.org/ns#"
   xmlns:rdf="http://www.w3.org/1999/02/22-rdf-syntax-ns#"
   xmlns:svg="http://www.w3.org/2000/svg"
   xmlns="http://www.w3.org/2000/svg"
   xmlns:sodipodi="http://sodipodi.sourceforge.net/DTD/sodipodi-0.dtd"
   xmlns:inkscape="http://www.inkscape.org/namespaces/inkscape"
   inkscape:export-ydpi="96"
   inkscape:export-xdpi="96"
   inkscape:export-filename="C:\Users\fabien\work\tandafuria-client\static\icon.png"
   inkscape:version="1.0 (4035a4fb49, 2020-05-01)"
   sodipodi:docname="icon.svg"
   id="svg25"
   style="clip-rule:evenodd;fill-rule:evenodd;stroke-linejoin:round;stroke-miterlimit:2"
   xml:space="preserve"
   version="1.1"
   viewBox="0 0 512 512"
   height="512"
   width="512"><metadata
     id="metadata29"><rdf:RDF><cc:Work
         rdf:about=""><dc:format>image/svg+xml</dc:format><dc:type
           rdf:resource="http://purl.org/dc/dcmitype/StillImage" /><dc:title></dc:title></cc:Work></rdf:RDF></metadata><sodipodi:namedview
     inkscape:current-layer="svg25"
     inkscape:window-maximized="0"
     inkscape:window-y="105"
     inkscape:window-x="626"
     inkscape:cy="382.5"
     inkscape:cx="382.5"
     inkscape:zoom="1.1111111"
     showgrid="false"
     id="namedview27"
     inkscape:window-height="1152"
     inkscape:window-width="1856"
     inkscape:pageshadow="2"
     inkscape:pageopacity="0"
     guidetolerance="10"
     gridtolerance="10"
     objecttolerance="10"
     borderopacity="1"
     bordercolor="#666666"
     pagecolor="#ffffff" /><g
     transform="matrix(0.69595402,0,0,0.67766411,-0.8848083,1.1950224)"
     id="fond"><rect
       style="fill:#008000;fill-opacity:0"
       height="918.60699"
       width="902.82397"
       y="-99.600998"
       x="-73.952003"
       id="rect950" /><rect
       style="fill:#f2f2f2"
       height="764.93701"
       width="764.93701"
       y="-2.6229999"
       x="-0.48899999"
       id="rect1030" /></g><g
     transform="matrix(0.62608423,0,0,0.62608423,17.387649,14.657952)"
     serif:id="Calque 1"
     id="Calque-1"><g
       id="text3719" /><g
       id="g902"><g
         id="g846"><path
           style="fill:url(#_Linear1);fill-rule:nonzero"
           d="m 455.19,51.236 h -57.826 v 471.188 c -31.973,-12.299 -73.348,-12.472 -114.16,2.365 -73.117,26.61 -116.683,91.335 -97.311,144.547 19.378,53.227 94.355,74.79 167.465,48.18 62.102,-22.594 102.726,-72.684 101.731,-119.862 l 0.101,-385.347 c 100.83,15.89 107.729,143.351 95.654,179.095 -4.585,13.546 3.489,23.69 18.73,0 C 678.29,222.285 455.19,147.668 455.19,51.236 Z"
           id="path844" /></g></g><g
       id="g941"><g
         id="g909"><path
           style="fill:url(#_Linear2);fill-rule:nonzero"
           d="m 455.19,51.236 h -57.826 v 471.188 c -31.973,-12.299 -73.348,-12.472 -114.16,2.365 -73.117,26.61 -116.683,91.335 -97.311,144.547 19.378,53.227 94.355,74.79 167.465,48.18 62.102,-22.594 102.726,-72.684 101.731,-119.862 l 0.101,-385.347 c 100.83,15.89 107.729,143.351 95.654,179.095 -4.585,13.546 3.489,23.69 18.73,0 C 678.29,222.285 455.19,147.668 455.19,51.236 Z"
           id="path907" /></g></g></g><defs
     id="defs23"><linearGradient
       gradientTransform="matrix(418.145,0,0,418.145,181.291,390.076)"
       gradientUnits="userSpaceOnUse"
       y2="0"
       x2="1"
       y1="0"
       x1="0"
       id="_Linear1"><stop
         id="stop13"
         style="stop-color:#4527a0;stop-opacity:1"
         offset="0" /><stop
         id="stop15"
         style="stop-color:#ff27a0;stop-opacity:1"
         offset="1" /></linearGradient><linearGradient
       gradientTransform="matrix(418.145,0,0,418.145,181.291,390.076)"
       gradientUnits="userSpaceOnUse"
       y2="0"
       x2="1"
       y1="0"
       x1="0"
       id="_Linear2"><stop
         id="stop18"
         style="stop-color:#4527a0;stop-opacity:1"
         offset="0" /><stop
         id="stop20"
         style="stop-color:#ff27a0;stop-opacity:1"
         offset="1" /></linearGradient></defs></svg>
